<svg width="1080" height="1080" viewBox="0 0 1080 1080" fill="none" xmlns="http://www.w3.org/2000/svg">
<g clip-path="url(#clip0_7_1378)">
<path d="M-0.5 999.5C86.761 999.5 157.5 928.761 157.5 841.5C157.5 754.239 86.761 683.5 -0.5 683.5C-87.761 683.5 -158.5 754.239 -158.5 841.5C-158.5 928.761 -87.761 999.5 -0.5 999.5Z" stroke="#222A35" stroke-width="11"/>
<mask id="mask0_7_1378" style="mask-type:luminance" maskUnits="userSpaceOnUse" x="-133" y="701" width="274" height="282">
<path d="M-129.324 897.17C-116.527 927.418 -93.5368 952.227 -64.3484 967.287C-35.1604 982.346 -1.61946 986.704 30.4475 979.604C62.5155 972.503 91.0815 954.393 111.184 928.419C131.286 902.445 141.653 870.25 140.484 837.426C139.316 804.603 126.685 773.227 104.786 748.749C82.8866 724.271 53.1046 708.238 20.6136 703.436C-11.8774 698.635 -45.0245 705.367 -73.0675 722.465C-101.11 739.562 -122.277 765.944 -132.89 797.026L-122.253 800.658C-112.489 772.063 -93.0153 747.792 -67.2154 732.062C-41.4164 716.332 -10.9214 710.138 18.9706 714.555C48.8625 718.973 76.2615 733.723 96.4085 756.243C116.556 778.763 128.176 807.629 129.252 837.826C130.327 868.024 120.789 897.644 102.295 921.54C83.8006 945.435 57.5195 962.097 28.0175 968.63C-1.48346 975.162 -32.3425 971.153 -59.1955 957.298C-86.0485 943.443 -107.199 920.619 -118.972 892.79L-129.324 897.17Z" fill="white"/>
</mask>
<g mask="url(#mask0_7_1378)">
<path d="M-129.324 897.17C-116.527 927.418 -93.5367 952.227 -64.3484 967.287C-35.1604 982.346 -1.61946 986.704 30.4475 979.604C62.5155 972.503 91.0815 954.393 111.184 928.419C131.286 902.445 141.653 870.25 140.484 837.426C139.316 804.603 126.685 773.227 104.786 748.749C82.8866 724.271 53.1046 708.238 20.6136 703.436C-11.8774 698.635 -45.0245 705.367 -73.0675 722.465C-101.11 739.562 -122.277 765.944 -132.89 797.026L-122.253 800.658C-112.489 772.063 -93.0153 747.792 -67.2154 732.062C-41.4164 716.332 -10.9214 710.138 18.9706 714.555C48.8626 718.973 76.2615 733.723 96.4085 756.243C116.556 778.763 128.176 807.629 129.252 837.826C130.327 868.024 120.789 897.644 102.295 921.54C83.8006 945.435 57.5195 962.097 28.0175 968.63C-1.48345 975.162 -32.3425 971.153 -59.1955 957.298C-86.0485 943.443 -107.199 920.619 -118.972 892.79L-129.324 897.17Z" stroke="#222A35" stroke-width="22"/>
</g>
<path d="M26.467 776.471V762C26.467 757.858 23.109 754.5 18.967 754.5H8.82201C4.68001 754.5 1.32201 757.858 1.32201 762V772.807C0.357006 772.766 -0.620992 772.733 -1.61099 772.707V762C-1.61099 757.858 -4.96899 754.5 -9.11099 754.5H-19.256C-23.398 754.5 -26.756 757.858 -26.756 762V772.642H-41C-45.142 772.642 -48.5 776 -48.5 780.142V904.396C-48.5 908.539 -45.142 911.896 -41 911.896H-26.756V922C-26.756 926.142 -23.398 929.5 -19.256 929.5H-9.11099C-4.96899 929.5 -1.61099 926.142 -1.61099 922V911.896H1.32201V922C1.32201 926.142 4.68001 929.5 8.82201 929.5H18.967C23.109 929.5 26.467 926.142 26.467 922V908.77C28.02 908.303 29.532 907.781 30.999 907.205L31.018 907.197L31.037 907.19C39.286 903.879 45.905 899.042 50.562 892.532L50.578 892.509L50.594 892.486C55.266 885.814 57.5 877.97 57.5 869.214C57.5 862.045 56.459 855.742 53.995 850.651C51.668 845.842 48.462 841.912 44.282 839.129C43.821 838.822 43.353 838.526 42.879 838.242C43.169 837.994 43.454 837.738 43.735 837.474C47.13 834.281 49.612 830.269 51.27 825.613C52.916 820.991 53.7 815.986 53.7 810.655C53.7 801.686 51.329 793.914 46.001 787.986C41.276 782.472 34.6 778.739 26.467 776.471ZM10.363 875.562L10.352 875.573L10.342 875.584C9.126 876.929 6.074 878.443 -0.778 878.443H-5.62199V856.032H-1.83299C3.01801 856.032 6.221 856.662 8.172 857.532L8.215 857.551L8.258 857.569C10.481 858.515 11.549 859.618 12.094 860.648C12.867 862.111 13.356 864.01 13.356 866.519C13.356 870.709 12.211 873.54 10.363 875.562ZM7.69901 821.198C6.64401 822.19 3.66499 823.477 -3.10001 823.477H-5.62199V805.916H-4.789C1.924 805.916 5.71401 806.989 7.57401 808.227C8.87501 809.094 9.978 810.632 9.978 814.248C9.978 818.007 8.95701 820.015 7.69901 821.198Z" stroke="#222A35" stroke-width="11"/>
<path d="M1079.5 999.5C1166.76 999.5 1237.5 928.761 1237.5 841.5C1237.5 754.239 1166.76 683.5 1079.5 683.5C992.239 683.5 921.5 754.239 921.5 841.5C921.5 928.761 992.239 999.5 1079.5 999.5Z" stroke="#222A35" stroke-width="11"/>
<mask id="mask1_7_1378" style="mask-type:luminance" maskUnits="userSpaceOnUse" x="947" y="701" width="274" height="282">
<path d="M950.676 897.17C963.473 927.418 986.463 952.227 1015.65 967.287C1044.84 982.346 1078.38 986.704 1110.45 979.604C1142.52 972.503 1171.08 954.393 1191.18 928.419C1211.29 902.445 1221.65 870.25 1220.48 837.426C1219.32 804.603 1206.68 773.227 1184.79 748.749C1162.89 724.271 1133.1 708.238 1100.61 703.436C1068.12 698.635 1034.98 705.367 1006.93 722.465C978.89 739.562 957.723 765.944 947.11 797.026L957.747 800.658C967.511 772.063 986.985 747.792 1012.78 732.062C1038.58 716.332 1069.08 710.138 1098.97 714.555C1128.86 718.973 1156.26 733.723 1176.41 756.243C1196.56 778.763 1208.18 807.629 1209.25 837.826C1210.33 868.024 1200.79 897.644 1182.29 921.54C1163.8 945.435 1137.52 962.097 1108.02 968.63C1078.52 975.162 1047.66 971.153 1020.8 957.298C993.952 943.443 972.801 920.619 961.028 892.79L950.676 897.17Z" fill="white"/>
</mask>
<g mask="url(#mask1_7_1378)">
<path d="M950.676 897.17C963.473 927.418 986.463 952.227 1015.65 967.287C1044.84 982.346 1078.38 986.704 1110.45 979.604C1142.52 972.503 1171.08 954.393 1191.18 928.419C1211.29 902.445 1221.65 870.25 1220.48 837.426C1219.32 804.603 1206.68 773.227 1184.79 748.749C1162.89 724.271 1133.1 708.238 1100.61 703.436C1068.12 698.635 1034.98 705.367 1006.93 722.465C978.89 739.562 957.723 765.944 947.11 797.026L957.747 800.658C967.511 772.063 986.985 747.792 1012.78 732.062C1038.58 716.332 1069.08 710.138 1098.97 714.555C1128.86 718.973 1156.26 733.723 1176.41 756.243C1196.56 778.763 1208.18 807.629 1209.25 837.826C1210.33 868.024 1200.79 897.644 1182.29 921.54C1163.8 945.435 1137.52 962.097 1108.02 968.63C1078.52 975.162 1047.66 971.153 1020.8 957.298C993.952 943.443 972.801 920.619 961.028 892.79L950.676 897.17Z" stroke="#222A35" stroke-width="22"/>
</g>
<path d="M1106.47 776.471V762C1106.47 757.858 1103.11 754.5 1098.97 754.5H1088.82C1084.68 754.5 1081.32 757.858 1081.32 762V772.807C1080.36 772.766 1079.38 772.733 1078.39 772.707V762C1078.39 757.858 1075.03 754.5 1070.89 754.5H1060.74C1056.6 754.5 1053.24 757.858 1053.24 762V772.642H1039C1034.86 772.642 1031.5 776 1031.5 780.142V904.396C1031.5 908.539 1034.86 911.896 1039 911.896H1053.24V922C1053.24 926.142 1056.6 929.5 1060.74 929.5H1070.89C1075.03 929.5 1078.39 926.142 1078.39 922V911.896H1081.32V922C1081.32 926.142 1084.68 929.5 1088.82 929.5H1098.97C1103.11 929.5 1106.47 926.142 1106.47 922V908.77C1108.02 908.303 1109.53 907.781 1111 907.205L1111.02 907.197L1111.04 907.19C1119.29 903.879 1125.9 899.042 1130.56 892.532L1130.58 892.509L1130.59 892.486C1135.27 885.814 1137.5 877.97 1137.5 869.214C1137.5 862.045 1136.46 855.742 1133.99 850.651C1131.67 845.842 1128.46 841.912 1124.28 839.129C1123.82 838.822 1123.35 838.526 1122.88 838.242C1123.17 837.994 1123.45 837.738 1123.74 837.474C1127.13 834.281 1129.61 830.269 1131.27 825.613C1132.92 820.991 1133.7 815.986 1133.7 810.655C1133.7 801.686 1131.33 793.914 1126 787.986C1121.28 782.472 1114.6 778.739 1106.47 776.471ZM1090.36 875.562L1090.35 875.573L1090.34 875.584C1089.13 876.929 1086.07 878.443 1079.22 878.443H1074.38V856.032H1078.17C1083.02 856.032 1086.22 856.662 1088.17 857.532L1088.21 857.551L1088.26 857.569C1090.48 858.515 1091.55 859.618 1092.09 860.648C1092.87 862.111 1093.36 864.01 1093.36 866.519C1093.36 870.709 1092.21 873.54 1090.36 875.562ZM1087.7 821.198C1086.64 822.19 1083.66 823.477 1076.9 823.477H1074.38V805.916H1075.21C1081.92 805.916 1085.71 806.989 1087.57 808.227C1088.88 809.094 1089.98 810.632 1089.98 814.248C1089.98 818.007 1088.96 820.015 1087.7 821.198Z" stroke="#222A35" stroke-width="11"/>
<path d="M407.513 745.812V691.545C407.513 690.67 408.222 689.961 409.098 689.961H434.448C437.074 689.961 439.202 687.833 439.202 685.208V659.857C439.202 657.232 437.074 655.104 434.448 655.104H343.741C341.115 655.104 338.987 657.232 338.987 659.857V685.208C338.987 687.833 341.115 689.961 343.741 689.961H369.091C369.966 689.961 370.676 690.67 370.676 691.545V780.273C370.676 782.898 372.803 785.026 375.429 785.026H402.76C405.385 785.026 407.513 782.898 407.513 780.273V764.429" stroke="#222A35" stroke-width="9" stroke-linecap="round"/>
<path d="M388.5 842.461C457.629 842.461 513.669 786.421 513.669 717.292C513.669 648.163 457.629 592.123 388.5 592.123C319.371 592.123 263.331 648.163 263.331 717.292C263.331 786.421 319.371 842.461 388.5 842.461Z" stroke="#222A35" stroke-width="10"/>
<mask id="mask2_7_1378" style="mask-type:luminance" maskUnits="userSpaceOnUse" x="277" y="605" width="223" height="223">
<path d="M498.959 730.196C502.161 704.375 496.216 678.248 482.155 656.355C468.095 634.461 446.81 618.185 421.997 610.355C397.184 602.524 370.411 603.634 346.331 613.492C322.252 623.349 302.387 641.331 290.187 664.313C277.988 687.295 274.225 713.825 279.553 739.293C284.881 764.76 298.964 787.557 319.353 803.721C339.742 819.885 365.15 828.395 391.162 827.773C417.174 827.151 442.146 817.435 461.739 800.315L455.88 793.61C437.854 809.361 414.88 818.299 390.949 818.871C367.018 819.444 343.643 811.615 324.885 796.743C306.126 781.873 293.171 760.9 288.269 737.47C283.367 714.039 286.829 689.631 298.052 668.488C309.276 647.344 327.552 630.801 349.705 621.732C371.859 612.664 396.489 611.642 419.317 618.846C442.145 626.05 461.728 641.024 474.663 661.166C487.598 681.309 493.068 705.345 490.122 729.101L498.959 730.196Z" fill="white"/>
</mask>
<g mask="url(#mask2_7_1378)">
<path d="M498.959 730.196C502.161 704.375 496.216 678.248 482.155 656.355C468.095 634.461 446.81 618.185 421.997 610.355C397.184 602.524 370.411 603.634 346.331 613.492C322.252 623.349 302.387 641.331 290.187 664.313C277.988 687.295 274.225 713.825 279.553 739.293C284.881 764.76 298.964 787.557 319.353 803.721C339.742 819.885 365.15 828.395 391.162 827.773C417.174 827.151 442.146 817.435 461.739 800.315L455.88 793.61C437.854 809.361 414.88 818.299 390.949 818.871C367.018 819.444 343.643 811.615 324.885 796.743C306.126 781.873 293.171 760.9 288.269 737.47C283.367 714.039 286.829 689.631 298.052 668.488C309.276 647.344 327.552 630.801 349.705 621.732C371.859 612.664 396.489 611.642 419.317 618.846C442.145 626.05 461.728 641.024 474.663 661.166C487.598 681.309 493.068 705.345 490.122 729.101L498.959 730.196Z" stroke="#222A35" stroke-width="22"/>
</g>
<path d="M367.157 711.351L354.629 712.115C345.687 712.661 336.812 714.004 328.108 716.128L325.776 716.696C322.698 717.448 322.506 721.753 325.506 722.775L333.833 725.61L343.139 727.591L352.446 729.571L370.667 731.948C382.793 733.002 394.987 733.002 407.112 731.948L425.335 728.779L432.173 727.59C439.75 726.273 447.207 724.341 454.47 721.815C456.611 721.07 456.459 717.993 454.256 717.463L451.045 716.692C440.649 714.192 430.054 712.613 419.381 711.971L409.063 711.351" stroke="#222A35" stroke-width="9"/>
<path d="M1063.54 402.5C1150.8 402.5 1221.54 331.761 1221.54 244.5C1221.54 157.239 1150.8 86.5 1063.54 86.5C976.278 86.5 905.539 157.239 905.539 244.5C905.539 331.761 976.278 402.5 1063.54 402.5Z" stroke="#222A35" stroke-width="11"/>
<mask id="mask3_7_1378" style="mask-type:luminance" maskUnits="userSpaceOnUse" x="922" y="104" width="282" height="282">
<path d="M1158.47 348.381C1182.54 326.031 1198.01 295.956 1202.21 263.381C1206.41 230.807 1199.06 197.791 1181.45 170.071C1163.83 142.35 1137.06 121.677 1105.79 111.643C1074.51 101.61 1040.71 102.849 1010.26 115.147C979.802 127.445 954.617 150.024 939.08 178.96C923.542 207.896 918.633 241.361 925.205 273.541C931.777 305.721 949.416 334.581 975.055 355.108C1000.69 375.634 1032.72 386.53 1065.55 385.901L1065.34 374.663C1035.13 375.241 1005.67 365.218 982.08 346.333C958.491 327.449 942.264 300.897 936.218 271.292C930.171 241.687 934.688 210.899 948.982 184.277C963.277 157.656 986.446 136.883 1014.46 125.57C1042.48 114.256 1073.58 113.115 1102.35 122.346C1131.12 131.577 1155.75 150.596 1171.96 176.099C1188.17 201.602 1194.92 231.976 1191.06 261.945C1187.2 291.914 1172.96 319.583 1150.82 340.144L1158.47 348.381Z" fill="white"/>
</mask>
<g mask="url(#mask3_7_1378)">
<path d="M1158.47 348.381C1182.54 326.031 1198.01 295.956 1202.21 263.381C1206.41 230.807 1199.06 197.791 1181.45 170.071C1163.83 142.35 1137.06 121.677 1105.79 111.643C1074.51 101.61 1040.71 102.849 1010.26 115.147C979.802 127.445 954.617 150.024 939.08 178.96C923.542 207.896 918.633 241.361 925.205 273.541C931.777 305.721 949.416 334.581 975.055 355.108C1000.69 375.634 1032.72 386.53 1065.55 385.901L1065.34 374.663C1035.13 375.241 1005.67 365.218 982.08 346.333C958.491 327.449 942.264 300.897 936.218 271.292C930.171 241.687 934.688 210.899 948.982 184.277C963.277 157.656 986.446 136.883 1014.46 125.57C1042.48 114.256 1073.58 113.115 1102.35 122.346C1131.12 131.577 1155.75 150.596 1171.96 176.099C1188.17 201.602 1194.92 231.976 1191.06 261.945C1187.2 291.914 1172.96 319.583 1150.82 340.144L1158.47 348.381Z" stroke="#222A35" stroke-width="22"/>
</g>
<path d="M1075.17 235.908L1064.6 327.237" stroke="#222A35" stroke-width="11" stroke-linecap="round"/>
<path d="M1003.07 178.227L1075.17 235.908" stroke="#222A35" stroke-width="11" stroke-linecap="round"/>
<path d="M1075.17 235.908L1125 189.5" stroke="#222A35" stroke-width="11" stroke-linecap="round"/>
<path d="M1075.17 235.908L1147.27 224.372" stroke="#222A35" stroke-width="11" stroke-linecap="round"/>
<path d="M1122.04 187.373L1008.85 169.202C1000.01 167.783 993.013 176.558 996.362 184.858L1054.04 327.854C1057.4 336.179 1068.58 337.618 1073.94 330.415L1148.58 230.053C1151.67 225.896 1151.6 220.185 1148.41 216.104L1129.28 191.642C1127.49 189.358 1124.91 187.833 1122.04 187.373Z" stroke="#222A35" stroke-width="11"/>
<path d="M595.539 1237.5C682.8 1237.5 753.539 1166.76 753.539 1079.5C753.539 992.239 682.8 921.5 595.539 921.5C508.278 921.5 437.539 992.239 437.539 1079.5C437.539 1166.76 508.278 1237.5 595.539 1237.5Z" stroke="#222A35" stroke-width="11"/>
<mask id="mask4_7_1378" style="mask-type:luminance" maskUnits="userSpaceOnUse" x="454" y="939" width="282" height="282">
<path d="M690.471 1183.38C714.538 1161.03 730.014 1130.96 734.212 1098.38C738.409 1065.81 731.061 1032.79 713.446 1005.07C695.83 977.35 669.06 956.677 637.786 946.643C606.512 936.61 572.711 937.849 542.256 950.147C511.802 962.445 486.617 985.023 471.08 1013.96C455.542 1042.9 450.633 1076.36 457.205 1108.54C463.777 1140.72 481.416 1169.58 507.055 1190.11C532.695 1210.63 564.716 1221.53 597.553 1220.9L597.338 1209.66C567.127 1210.24 537.668 1200.22 514.08 1181.33C490.491 1162.45 474.264 1135.9 468.218 1106.29C462.171 1076.69 466.688 1045.9 480.982 1019.28C495.277 992.656 518.446 971.883 546.465 960.569C574.483 949.256 605.58 948.115 634.352 957.346C663.124 966.577 687.753 985.596 703.959 1011.1C720.166 1036.6 726.925 1066.98 723.064 1096.95C719.202 1126.91 704.964 1154.58 682.822 1175.14L690.471 1183.38Z" fill="white"/>
</mask>
<g mask="url(#mask4_7_1378)">
<path d="M690.471 1183.38C714.538 1161.03 730.014 1130.96 734.212 1098.38C738.409 1065.81 731.061 1032.79 713.446 1005.07C695.83 977.35 669.06 956.677 637.786 946.643C606.512 936.61 572.711 937.849 542.256 950.147C511.802 962.445 486.617 985.024 471.08 1013.96C455.542 1042.9 450.633 1076.36 457.205 1108.54C463.777 1140.72 481.416 1169.58 507.055 1190.11C532.695 1210.63 564.716 1221.53 597.553 1220.9L597.338 1209.66C567.127 1210.24 537.668 1200.22 514.08 1181.33C490.491 1162.45 474.264 1135.9 468.218 1106.29C462.171 1076.69 466.688 1045.9 480.982 1019.28C495.277 992.656 518.446 971.883 546.465 960.569C574.483 949.256 605.58 948.115 634.352 957.346C663.124 966.577 687.753 985.596 703.959 1011.1C720.166 1036.6 726.925 1066.98 723.064 1096.95C719.202 1126.91 704.964 1154.58 682.822 1175.14L690.471 1183.38Z" stroke="#222A35" stroke-width="22"/>
</g>
<path d="M595 1032V1154" stroke="#222A35" stroke-width="14" stroke-linecap="round"/>
<path d="M603.729 1155.1L668.88 1040.7C672.677 1034.03 667.862 1025.75 660.19 1025.75H529.888C522.216 1025.75 517.402 1034.03 521.198 1040.7L586.349 1155.1C590.185 1161.83 599.893 1161.83 603.729 1155.1Z" stroke="#222A35" stroke-width="14"/>
<path d="M781.027 646.388C844.882 646.388 896.647 594.623 896.647 530.768C896.647 466.913 844.882 415.148 781.027 415.148C717.172 415.148 665.407 466.913 665.407 530.768C665.407 594.623 717.172 646.388 781.027 646.388Z" stroke="#222A35" stroke-width="9"/>
<mask id="mask5_7_1378" style="mask-type:luminance" maskUnits="userSpaceOnUse" x="684" y="428" width="201" height="207">
<path d="M686.758 571.506C696.123 593.64 712.946 611.795 734.305 622.815C755.663 633.835 780.209 637.024 803.674 631.829C827.14 626.632 848.044 613.38 862.754 594.373C877.465 575.366 885.051 551.807 884.195 527.787C883.34 503.768 874.097 480.808 858.072 462.895C842.048 444.983 820.254 433.251 796.477 429.737C772.701 426.223 748.446 431.15 727.925 443.662C707.404 456.173 691.915 475.479 684.148 498.223L691.932 500.881C699.077 479.956 713.327 462.195 732.207 450.685C751.086 439.174 773.401 434.641 795.275 437.874C817.149 441.106 837.2 451.9 851.942 468.38C866.685 484.859 875.189 505.982 875.975 528.08C876.762 550.178 869.783 571.853 856.25 589.339C842.716 606.825 823.485 619.018 801.896 623.798C780.307 628.578 757.726 625.644 738.076 615.506C718.426 605.367 702.948 588.665 694.333 568.301L686.758 571.506Z" fill="white"/>
</mask>
<g mask="url(#mask5_7_1378)">
<path d="M686.758 571.506C696.123 593.64 712.946 611.795 734.305 622.815C755.663 633.835 780.209 637.024 803.674 631.829C827.14 626.632 848.044 613.38 862.754 594.373C877.465 575.366 885.051 551.807 884.195 527.787C883.34 503.768 874.097 480.808 858.072 462.895C842.048 444.983 820.254 433.251 796.477 429.737C772.701 426.223 748.446 431.15 727.925 443.662C707.404 456.173 691.915 475.479 684.148 498.223L691.932 500.881C699.077 479.956 713.327 462.195 732.207 450.685C751.086 439.174 773.401 434.641 795.275 437.874C817.149 441.106 837.2 451.9 851.942 468.38C866.685 484.859 875.189 505.982 875.975 528.08C876.762 550.178 869.783 571.853 856.25 589.339C842.716 606.825 823.485 619.018 801.896 623.798C780.307 628.578 757.726 625.644 738.076 615.506C718.426 605.367 702.948 588.665 694.333 568.301L686.758 571.506Z" stroke="#222A35" stroke-width="22"/>
</g>
<path d="M783.522 462.746L819.538 525.423C820.47 527.045 819.949 529.114 818.357 530.102L782.341 552.475C781.214 553.175 779.786 553.175 778.659 552.475L742.643 530.102C741.051 529.114 740.53 527.045 741.462 525.423L777.478 462.746C778.816 460.418 782.184 460.418 783.522 462.746Z" stroke="#222A35" stroke-width="9"/>
<path d="M783.411 599.45L813.608 557.337C814.218 556.485 813.275 555.387 812.341 555.863L786.319 569.111C782.696 571.098 778.304 571.098 774.681 569.111L748.659 555.863C747.725 555.387 746.782 556.485 747.392 557.337L777.589 599.45C778.974 601.517 782.026 601.517 783.411 599.45Z" stroke="#222A35" stroke-width="8"/>
<path d="M780 463V549" stroke="#222A35" stroke-width="9" stroke-linecap="round"/>
<path d="M781 518L742 527" stroke="#222A35" stroke-width="8" stroke-linecap="round"/>
<path d="M780 518L819 527" stroke="#222A35" stroke-width="8" stroke-linecap="round"/>
<path d="M409.051 461.664C469.724 461.664 518.91 412.478 518.91 351.805C518.91 291.131 469.724 241.945 409.051 241.945C348.377 241.945 299.191 291.131 299.191 351.805C299.191 412.478 348.377 461.664 409.051 461.664Z" stroke="#222A35" stroke-width="9"/>
<mask id="mask6_7_1378" style="mask-type:luminance" maskUnits="userSpaceOnUse" x="316" y="254" width="192" height="197">
<path d="M319.479 390.513C328.377 411.545 344.362 428.795 364.656 439.266C384.951 449.737 408.273 452.767 430.57 447.83C452.866 442.893 472.729 430.301 486.706 412.241C500.684 394.181 507.892 371.795 507.079 348.972C506.266 326.15 497.484 304.334 482.257 287.313C467.031 270.294 446.323 259.146 423.731 255.807C401.14 252.469 378.093 257.15 358.594 269.038C339.096 280.926 324.378 299.27 316.999 320.881L324.395 323.407C331.184 303.524 344.724 286.648 362.663 275.711C380.602 264.774 401.805 260.467 422.589 263.538C443.373 266.61 462.425 276.866 476.433 292.524C490.441 308.183 498.521 328.254 499.269 349.25C500.016 370.247 493.385 390.842 480.526 407.458C467.667 424.072 449.393 435.657 428.88 440.2C408.367 444.742 386.911 441.954 368.24 432.32C349.569 422.687 334.862 406.817 326.676 387.467L319.479 390.513Z" fill="white"/>
</mask>
<g mask="url(#mask6_7_1378)">
<path d="M319.479 390.513C328.377 411.545 344.362 428.795 364.656 439.266C384.951 449.737 408.273 452.767 430.57 447.83C452.866 442.893 472.729 430.301 486.707 412.241C500.684 394.181 507.892 371.795 507.079 348.972C506.266 326.15 497.484 304.334 482.257 287.313C467.031 270.294 446.323 259.146 423.731 255.807C401.14 252.469 378.093 257.15 358.594 269.038C339.096 280.926 324.378 299.27 316.999 320.881L324.395 323.407C331.184 303.524 344.724 286.648 362.663 275.711C380.602 264.774 401.805 260.467 422.589 263.538C443.373 266.61 462.425 276.866 476.433 292.524C490.441 308.183 498.521 328.254 499.269 349.25C500.016 370.247 493.385 390.842 480.526 407.458C467.667 424.072 449.393 435.657 428.88 440.2C408.367 444.742 386.911 441.954 368.24 432.32C349.569 422.687 334.862 406.817 326.676 387.467L319.479 390.513Z" stroke="#222A35" stroke-width="22"/>
</g>
<path d="M417.188 381.123V366.205C417.905 366.555 418.48 366.892 418.928 367.211L418.946 367.223L418.964 367.236C420.335 368.186 420.861 368.963 421.052 369.452C421.425 370.408 421.627 371.467 421.627 372.663C421.627 375.74 420.971 377.939 419.939 379.513L419.925 379.533L419.912 379.554C419.631 379.995 418.907 380.646 417.188 381.123ZM395.054 359.382L395.06 359.383L395.066 359.385L402.724 361.609V381.087C399.681 380.621 396.815 379.941 394.121 379.051C390.387 377.807 387.139 376.474 384.357 375.064C382.121 373.93 379.339 374.823 378.228 377.14L372.266 389.572C371.235 391.719 372.043 394.351 374.206 395.505C378.502 397.797 383.401 399.641 388.868 401.064C393.429 402.252 398.049 403.091 402.724 403.582V411.602C402.724 414.098 404.747 416.121 407.244 416.121H412.668C415.165 416.121 417.188 414.098 417.188 411.602V403.856C422.932 403.314 427.959 401.901 432.133 399.471L432.145 399.464L432.157 399.457C437.077 396.545 440.813 392.624 443.223 387.703C445.561 382.93 446.699 377.684 446.699 372.033C446.699 364.204 444.98 357.551 441.067 352.54C437.242 347.641 431.676 344.27 424.736 342.216L424.729 342.214L417.188 339.996V322.918C419.641 323.205 421.984 323.666 424.222 324.296L424.227 324.297L424.232 324.299C427.58 325.231 430.691 326.348 433.572 327.644C435.879 328.681 438.635 327.631 439.617 325.237L444.509 313.307C445.367 311.215 444.551 308.761 442.511 307.64C435.265 303.656 426.792 301.316 417.188 300.514V292.703C417.188 290.207 415.165 288.184 412.668 288.184H407.244C404.747 288.184 402.724 290.207 402.724 292.703V300.586C398.001 301.128 393.62 302.253 389.607 303.996C384.478 306.18 380.316 309.42 377.258 313.744C374.099 318.21 372.634 323.603 372.634 329.689C372.634 334.001 373.243 338.082 374.496 341.906L374.503 341.926L374.51 341.947C375.889 346.003 378.262 349.527 381.542 352.498L381.564 352.518L381.587 352.538C385.01 355.541 389.578 357.771 395.054 359.382ZM400.55 324.87L400.57 324.856L400.59 324.84C401.151 324.408 401.852 324.01 402.724 323.671V335.276C401.55 334.677 400.804 334.126 400.377 333.67C399.652 332.85 399.056 331.477 399.056 329.059C399.056 326.527 399.788 325.443 400.55 324.87Z" stroke="#222A35" stroke-width="9"/>
<path d="M595.539 157.5C682.8 157.5 753.539 86.761 753.539 -0.5C753.539 -87.761 682.8 -158.5 595.539 -158.5C508.278 -158.5 437.539 -87.761 437.539 -0.5C437.539 86.761 508.278 157.5 595.539 157.5Z" stroke="#222A35" stroke-width="11"/>
<mask id="mask7_7_1378" style="mask-type:luminance" maskUnits="userSpaceOnUse" x="454" y="-141" width="282" height="282">
<path d="M690.471 103.381C714.538 81.031 730.014 50.9559 734.212 18.381C738.409 -14.1931 731.061 -47.209 713.446 -74.9295C695.83 -102.65 669.06 -123.323 637.786 -133.357C606.512 -143.39 572.711 -142.151 542.256 -129.853C511.802 -117.555 486.617 -94.9765 471.08 -66.0402C455.542 -37.104 450.633 -3.63904 457.205 28.541C463.777 60.7209 481.416 89.581 507.055 110.108C532.695 130.634 564.716 141.53 597.553 140.901L597.338 129.663C567.127 130.241 537.668 120.218 514.08 101.333C490.491 82.449 474.264 55.897 468.218 26.292C462.171 -3.31303 466.688 -34.101 480.982 -60.723C495.277 -87.3443 518.446 -108.117 546.465 -119.431C574.483 -130.744 605.58 -131.885 634.352 -122.654C663.124 -113.423 687.753 -94.4038 703.959 -68.9011C720.166 -43.398 726.925 -13.024 723.064 16.945C719.202 46.914 704.964 74.583 682.822 95.144L690.471 103.381Z" fill="white"/>
</mask>
<g mask="url(#mask7_7_1378)">
<path d="M690.471 103.381C714.538 81.031 730.014 50.956 734.212 18.381C738.409 -14.1931 731.061 -47.209 713.446 -74.9295C695.83 -102.65 669.06 -123.323 637.786 -133.357C606.512 -143.39 572.711 -142.151 542.256 -129.853C511.802 -117.555 486.617 -94.9765 471.08 -66.0402C455.542 -37.104 450.633 -3.63905 457.205 28.541C463.777 60.721 481.416 89.581 507.055 110.108C532.695 130.634 564.716 141.53 597.553 140.901L597.338 129.663C567.127 130.241 537.668 120.218 514.08 101.333C490.491 82.449 474.264 55.897 468.218 26.292C462.171 -3.31304 466.688 -34.101 480.982 -60.723C495.277 -87.3443 518.446 -108.117 546.465 -119.431C574.483 -130.744 605.58 -131.885 634.352 -122.654C663.124 -113.423 687.753 -94.4038 703.959 -68.9011C720.166 -43.398 726.925 -13.024 723.064 16.945C719.202 46.914 704.964 74.583 682.822 95.144L690.471 103.381Z" stroke="#222A35" stroke-width="22"/>
</g>
<path d="M595 -48V74" stroke="#222A35" stroke-width="14" stroke-linecap="round"/>
<path d="M603.729 75.097L668.88 -39.301C672.677 -45.968 667.862 -54.25 660.19 -54.25H529.888C522.216 -54.25 517.402 -45.968 521.198 -39.301L586.349 75.097C590.185 81.832 599.893 81.832 603.729 75.097Z" stroke="#222A35" stroke-width="14"/>
<path d="M-16.4609 402.5C70.8 402.5 141.539 331.761 141.539 244.5C141.539 157.239 70.8 86.5 -16.4609 86.5C-103.722 86.5 -174.461 157.239 -174.461 244.5C-174.461 331.761 -103.722 402.5 -16.4609 402.5Z" stroke="#222A35" stroke-width="11"/>
<mask id="mask8_7_1378" style="mask-type:luminance" maskUnits="userSpaceOnUse" x="-158" y="104" width="282" height="282">
<path d="M78.471 348.381C102.538 326.031 118.014 295.956 122.212 263.381C126.409 230.807 119.061 197.791 101.446 170.071C83.83 142.35 57.06 121.677 25.7859 111.643C-5.48805 101.61 -39.289 102.849 -69.744 115.147C-100.198 127.445 -125.383 150.024 -140.92 178.96C-156.458 207.896 -161.367 241.361 -154.795 273.541C-148.223 305.721 -130.584 334.581 -104.945 355.108C-79.305 375.634 -47.2841 386.53 -14.4471 385.901L-14.662 374.663C-44.873 375.241 -74.332 365.218 -97.9201 346.333C-121.509 327.449 -137.736 300.897 -143.782 271.292C-149.829 241.687 -145.312 210.899 -131.018 184.277C-116.723 157.656 -93.5536 136.883 -65.535 125.57C-37.5171 114.256 -6.42004 113.115 22.352 122.346C51.124 131.577 75.753 150.596 91.959 176.099C108.166 201.602 114.925 231.976 111.064 261.945C107.202 291.914 92.964 319.583 70.822 340.144L78.471 348.381Z" fill="white"/>
</mask>
<g mask="url(#mask8_7_1378)">
<path d="M78.471 348.381C102.538 326.031 118.014 295.956 122.212 263.381C126.409 230.807 119.061 197.791 101.446 170.071C83.83 142.35 57.0599 121.677 25.7859 111.643C-5.48805 101.61 -39.289 102.849 -69.744 115.147C-100.198 127.445 -125.383 150.024 -140.92 178.96C-156.458 207.896 -161.367 241.361 -154.795 273.541C-148.223 305.721 -130.584 334.581 -104.945 355.108C-79.305 375.634 -47.2841 386.53 -14.4471 385.901L-14.662 374.663C-44.873 375.241 -74.332 365.218 -97.9201 346.333C-121.509 327.449 -137.736 300.897 -143.782 271.292C-149.829 241.687 -145.312 210.899 -131.018 184.277C-116.723 157.656 -93.5535 136.883 -65.535 125.57C-37.517 114.256 -6.42004 113.115 22.352 122.346C51.124 131.577 75.753 150.596 91.959 176.099C108.166 201.602 114.925 231.976 111.064 261.945C107.202 291.914 92.964 319.583 70.822 340.144L78.471 348.381Z" stroke="#222A35" stroke-width="22"/>
</g>
<path d="M-4.82637 235.908L-15.4014 327.237" stroke="#222A35" stroke-width="11" stroke-linecap="round"/>
<path d="M-76.9277 178.227L-4.82574 235.908" stroke="#222A35" stroke-width="11" stroke-linecap="round"/>
<path d="M-4.82715 235.908L44.9988 189.5" stroke="#222A35" stroke-width="11" stroke-linecap="round"/>
<path d="M-4.82617 235.908L67.2748 224.372" stroke="#222A35" stroke-width="11" stroke-linecap="round"/>
<path d="M42.0422 187.373L-71.1509 169.202C-79.9879 167.783 -86.9866 176.558 -83.6385 184.858L-25.9569 327.854C-22.5989 336.179 -11.4219 337.618 -6.06385 330.415L68.5822 230.053C71.6742 225.896 71.6042 220.185 68.4122 216.104L49.2782 191.642C47.4912 189.358 44.9062 187.833 42.0422 187.373Z" stroke="#222A35" stroke-width="11"/>
</g>
<defs>
<clipPath id="clip0_7_1378">
<rect width="1080" height="1080" fill="white"/>
</clipPath>
</defs>
</svg>
